<?xml version="1.0" encoding="UTF-8" standalone="no"?>
<svg width="512px" height="512px" viewBox="0 0 512 512" version="1.1" xmlns="http://www.w3.org/2000/svg" xmlns:xlink="http://www.w3.org/1999/xlink" xmlns:sketch="http://www.bohemiancoding.com/sketch/ns">
    <!-- Generator: Sketch 3.4.1 (15681) - http://www.bohemiancoding.com/sketch -->
    <title>Android_Icon</title>
    <desc>Created with Sketch.</desc>
    <defs></defs>
    <g id="Page-1" stroke="none" stroke-width="1" fill="none" fill-rule="evenodd" sketch:type="MSPage">
        <g id="Android_Icon" sketch:type="MSArtboardGroup">
            <g id="Santa-2" sketch:type="MSLayerGroup" transform="translate(19.000000, 12.000000)">
                <path d="M44.7017214,226.755084 C44.7017214,-70.8379008 424.502154,-76.6810371 424.502154,226.755084 L424.502154,488.951157 L44.7017214,488.951157 L44.7017214,226.755084 Z" id="Rectangle-2" stroke="#4990E2" stroke-width="14" fill="#FFFFFF" sketch:type="MSShapeGroup" transform="translate(234.601938, 245.157500) scale(1, -1) translate(-234.601938, -245.157500) "></path>
                <ellipse id="Oval-3" fill="#FFB8C1" sketch:type="MSShapeGroup" cx="113.902648" cy="202.167009" rx="37.0144489" ry="36.9477824"></ellipse>
                <ellipse id="Oval-4" fill="#FFB8C1" sketch:type="MSShapeGroup" cx="353.691904" cy="202.167009" rx="37.0144489" ry="36.9477824"></ellipse>
                <ellipse id="Oval-5" stroke="#4990E2" stroke-width="14" fill="#556270" sketch:type="MSShapeGroup" cx="236.211261" cy="301.765379" rx="37.0144489" ry="36.9477824"></ellipse>
                <path d="M211.538808,182.065541 C100.502069,233.697272 -2.66382484,194.715341 0.0701195342,194.715341 C47.6923737,323.207663 166.524185,326.182638 236.803057,290.63032 C307.08193,326.182638 425.913741,323.207663 473.535995,194.715341 C476.269939,194.715341 373.104046,233.697272 262.067307,182.065541 C256.414521,178.510337 249.869372,175.128209 242.369993,171.964093 C240.848401,171.108524 239.326419,170.234698 237.804298,169.342287 C237.46886,169.46899 237.135113,169.596095 236.803052,169.723597 C236.470998,169.596093 236.137253,169.468989 235.801817,169.342287 C234.279694,170.234699 232.757711,171.108526 231.236117,171.964095 C223.736743,175.128209 217.191594,178.510337 211.538808,182.065541 Z" id="Path-12" stroke="#4990E2" stroke-width="14" fill="#FFFFFF" sketch:type="MSShapeGroup"></path>
                <ellipse id="Oval-1" stroke="#4990E2" stroke-width="14" fill="#FFB8C1" sketch:type="MSShapeGroup" cx="236.211261" cy="170.038503" rx="37.0144489" ry="36.9477824"></ellipse>
                <path d="M95.3954231,108.878906 L134.019196,108.878906" id="Line" stroke="#4990E2" stroke-width="14" stroke-linecap="square" sketch:type="MSShapeGroup"></path>
                <path d="M335.184679,108.878906 L373.808452,108.878906" id="Line-2" stroke="#4990E2" stroke-width="14" stroke-linecap="square" sketch:type="MSShapeGroup"></path>
            </g>
        </g>
    </g>
</svg>