<?xml version="1.0" encoding="UTF-8" standalone="no"?>
<svg width="512px" height="512px" viewBox="0 0 512 512" version="1.1" xmlns="http://www.w3.org/2000/svg" xmlns:xlink="http://www.w3.org/1999/xlink" xmlns:sketch="http://www.bohemiancoding.com/sketch/ns">
    <!-- Generator: Sketch 3.4 (15588) - http://www.bohemiancoding.com/sketch -->
    <title>btn_send</title>
    <desc>Created with Sketch.</desc>
    <defs></defs>
    <g id="Page-1" stroke="none" stroke-width="1" fill="none" fill-rule="evenodd" sketch:type="MSPage">
        <g id="btn_send" sketch:type="MSArtboardGroup" fill="#FFFFFF">
            <g id="Shape-+-Shape" sketch:type="MSLayerGroup" transform="translate(120.000000, 136.000000)">
                <path d="M147.2464,252.394057 L147.239086,252.394057 C145.7616,252.394057 144.423086,251.4944 143.863543,250.122971 L102.7536,149.924571 L2.5552,108.818286 C1.18742857,108.255086 0.291428571,106.920229 0.287771429,105.439086 C0.284114286,103.957943 1.17645714,102.619429 2.54422857,102.056229 L247.027886,0.874057143 C248.399314,0.310857143 249.968229,0.621714286 251.014171,1.66765714 C252.060114,2.7136 252.374629,4.28617143 251.807771,5.65028571 L150.6256,250.133943 C150.0624,251.501714 148.727543,252.394057 147.2464,252.394057 L147.2464,252.394057 Z M13.5449143,105.4208 L106.948343,143.740343 C107.851657,144.113371 108.568457,144.830171 108.941486,145.737143 L147.264686,239.140571 L241.673829,11.0116571 L13.5449143,105.4208 L13.5449143,105.4208 Z" id="Shape" sketch:type="MSShapeGroup"></path>
                <path d="M105.558629,150.780343 C104.6224,150.780343 103.686171,150.421943 102.973029,149.7088 C101.543086,148.278857 101.543086,145.967543 102.973029,144.5376 L241.933486,5.57714286 C243.363429,4.1472 245.674743,4.1472 247.104686,5.57714286 C248.534629,7.00708571 248.534629,9.3184 247.104686,10.7483429 L108.144229,149.7088 C107.431086,150.421943 106.494857,150.780343 105.558629,150.780343 L105.558629,150.780343 Z" id="Shape" sketch:type="MSShapeGroup"></path>
            </g>
        </g>
    </g>
</svg>