<?xml version="1.0" encoding="UTF-8" standalone="no"?>
<svg width="512px" height="512px" viewBox="0 0 512 512" version="1.1" xmlns="http://www.w3.org/2000/svg" xmlns:xlink="http://www.w3.org/1999/xlink" xmlns:sketch="http://www.bohemiancoding.com/sketch/ns">
    <!-- Generator: Sketch 3.4.1 (15681) - http://www.bohemiancoding.com/sketch -->
    <title>ico_noImage</title>
    <desc>Created with Sketch.</desc>
    <defs></defs>
    <g id="Page-1" stroke="none" stroke-width="1" fill="none" fill-rule="evenodd" sketch:type="MSPage">
        <g id="ico_noImage" sketch:type="MSArtboardGroup" fill="#E1E1E1">
            <g id="Group" sketch:type="MSLayerGroup" transform="translate(128.000000, 160.000000)">
                <path d="M104.217715,69.3940271 C104.217715,82.6596877 93.4067901,93.4304841 80.0585667,93.4304841 C66.7534148,93.4304841 55.899418,82.6635859 55.899418,69.3940271 C55.899418,56.1010789 66.7534148,45.3458754 80.0585667,45.3458754 C93.3950433,45.3458754 104.217715,56.1010789 104.217715,69.3940271 L104.217715,69.3940271 Z" id="Shape" sketch:type="MSShapeGroup"></path>
                <path d="M245.16305,0.461709675 L10.8467171,0.461709675 C10.8467171,0.461709675 0.208077403,0.461709675 0.208077403,11.0687806 L0.208077403,180.727341 C0.208077403,180.727341 0.208077403,191.314921 10.8467171,191.314921 L245.16305,191.314921 C245.16305,191.314921 255.797774,191.314921 255.797774,180.727341 L255.797774,11.0687806 C255.797774,11.0687806 255.797774,0.461709675 245.16305,0.461709675 L245.16305,0.461709675 Z M234.516579,170.116372 L21.5010191,170.116372 L21.5010191,21.6719534 L234.516579,21.6719534 L234.516579,170.116372 L234.516579,170.116372 Z" id="Shape" sketch:type="MSShapeGroup"></path>
                <path d="M217.652162,152.106571 C217.652162,152.106571 207.706581,94.6467304 177.811103,94.6467304 C147.931287,94.6467304 137.966128,132.970183 118.067133,132.970183 C98.10549,132.970183 98.10549,123.368854 78.2064959,123.368854 C58.2683459,123.368854 38.3458583,152.106571 38.3458583,152.106571 L217.652162,152.106571 L217.652162,152.106571 L217.652162,152.106571 Z" id="Shape" sketch:type="MSShapeGroup"></path>
            </g>
        </g>
    </g>
</svg>