<?xml version="1.0" encoding="UTF-8" standalone="no"?>
<svg width="512px" height="512px" viewBox="0 0 512 512" version="1.1" xmlns="http://www.w3.org/2000/svg" xmlns:xlink="http://www.w3.org/1999/xlink" xmlns:sketch="http://www.bohemiancoding.com/sketch/ns">
    <!-- Generator: Sketch 3.4.1 (15681) - http://www.bohemiancoding.com/sketch -->
    <title>ico_return</title>
    <desc>Created with Sketch.</desc>
    <defs></defs>
    <g id="Page-1" stroke="none" stroke-width="1" fill="none" fill-rule="evenodd" sketch:type="MSPage">
        <g id="ico_return" sketch:type="MSArtboardGroup" fill="#DA2B2A">
            <g id="Group" sketch:type="MSLayerGroup" transform="translate(98.000000, 136.000000)">
                <path d="M224.656,169.235556 L101.376,169.235556 C99.232,169.235556 97.088,168.164444 96.552,166.022222 L44.024,48.2 L5.432,48.2 C2.216,48.2 0.072,46.0577778 0.072,42.8444444 C0.072,39.6311111 2.216,37.4888889 5.432,37.4888889 L47.24,37.4888889 C49.384,37.4888889 51.528,38.56 52.064,40.7022222 L62.248,63.1955556 L260.568,63.1955556 C262.176,63.1955556 263.784,64.2666667 264.856,65.3377778 C265.928,66.9444444 265.928,68.5511111 265.392,70.1577778 L229.48,165.486667 C228.944,167.628889 226.8,169.235556 224.656,169.235556 L224.656,169.235556 Z M104.592,158.524444 L220.904,158.524444 L252.528,73.9066667 L66.536,73.9066667 L104.592,158.524444 L104.592,158.524444 Z" id="Shape" sketch:type="MSShapeGroup"></path>
                <path d="M232.16,214.222222 L94.944,214.222222 C79.4,214.222222 67.072,201.904444 67.072,186.373333 C67.072,170.842222 79.4,158.524444 94.944,158.524444 L100.84,158.524444 C104.056,158.524444 106.2,160.666667 106.2,163.88 C106.2,167.093333 104.056,169.235556 100.84,169.235556 L94.944,169.235556 C85.296,169.235556 77.792,176.733333 77.792,186.373333 C77.792,196.013333 85.296,203.511111 94.944,203.511111 L231.624,203.511111 C234.84,203.511111 236.984,205.653333 236.984,208.866667 C236.984,212.08 234.84,214.222222 232.16,214.222222 L232.16,214.222222 Z" id="Shape" sketch:type="MSShapeGroup"></path>
                <path d="M114.24,236.18 C105.128,236.18 98.16,228.682222 98.16,220.113333 C98.16,211.008889 105.664,204.046667 114.24,204.046667 C122.816,204.046667 130.32,211.544444 130.32,220.113333 C130.32,228.682222 122.816,236.18 114.24,236.18 L114.24,236.18 Z M114.24,214.222222 C111.024,214.222222 108.88,216.9 108.88,219.577778 C108.88,222.255556 111.56,224.933333 114.24,224.933333 C116.92,224.933333 119.6,222.255556 119.6,219.577778 C119.6,216.9 116.92,214.222222 114.24,214.222222 L114.24,214.222222 Z" id="Shape" sketch:type="MSShapeGroup"></path>
                <path d="M210.72,236.18 C201.608,236.18 194.64,228.682222 194.64,220.113333 C194.64,211.008889 202.144,204.046667 210.72,204.046667 C219.296,204.046667 226.8,211.544444 226.8,220.113333 C226.8,228.682222 219.296,236.18 210.72,236.18 L210.72,236.18 Z M210.72,214.222222 C207.504,214.222222 205.36,216.9 205.36,219.577778 C205.36,222.255556 208.04,224.933333 210.72,224.933333 C213.4,224.933333 216.08,222.255556 216.08,219.577778 C216.08,216.9 213.4,214.222222 210.72,214.222222 L210.72,214.222222 Z" id="Shape" sketch:type="MSShapeGroup"></path>
                <path d="M203.216,108.717778 L114.24,108.717778 C111.024,108.717778 108.88,106.575556 108.88,103.362222 C108.88,100.148889 111.024,98.0066667 114.24,98.0066667 L203.216,98.0066667 C206.432,98.0066667 208.576,100.148889 208.576,103.362222 C208.576,106.575556 205.896,108.717778 203.216,108.717778 L203.216,108.717778 Z" id="Shape" sketch:type="MSShapeGroup"></path>
                <path d="M193.568,138.708889 L127.104,138.708889 C123.888,138.708889 121.744,136.566667 121.744,133.353333 C121.744,130.14 123.888,127.997778 127.104,127.997778 L194.104,127.997778 C197.32,127.997778 199.464,130.14 199.464,133.353333 C199.464,136.566667 196.784,138.708889 193.568,138.708889 L193.568,138.708889 Z" id="Shape" sketch:type="MSShapeGroup"></path>
            </g>
        </g>
    </g>
</svg>